<svg fill="none" height="111" viewBox="0 0 416 111" width="416" xmlns="http://www.w3.org/2000/svg" xmlns:xlink="http://www.w3.org/1999/xlink"><clipPath id="a"><path d="m0 0h416v111h-416z"/></clipPath><g clip-path="url(#a)"><path clip-rule="evenodd" d="m110.034 55.017c0 30.385-24.675 55.017-55.113 55.017-28.8778 0-52.56819-22.1715-54.921-50.3924h72.8467v-9.2493h-72.8467c2.35281-28.2209 26.0432-50.3923 54.921-50.3923 30.438 0 55.113 24.6319 55.113 55.017zm204.325 45.049c19.097 0 31.621-10.2921 31.621-25.7929 0-14.3848-9.424-21.2051-23.685-23.5612l-12.649-2.1082c-9.672-1.612-16.121-5.8283-16.121-15.1288 0-9.4244 7.193-16.6168 20.834-16.6168 13.268 0 20.089 6.6963 20.833 16.2448h9.548c-.744-12.6486-10.416-23.93322-30.257-23.93322-19.594 0-30.382 11.03652-30.382 24.67732 0 14.5087 9.796 21.2051 23.189 23.4372l12.773 1.9841c10.664 1.8601 16.617 6.2003 16.617 15.3768 0 10.7886-8.805 17.7329-22.197 17.7329-13.889 0-22.57-6.6963-23.314-18.1049h-9.424c.744 14.8808 12.152 25.7929 32.614 25.7929zm-140.785-1.7357h-34.721v-87.3005h33.481c14.757 0 25.05 8.6804 25.05 22.5692 0 10.0445-5.705 16.7408-14.881 18.9729v.3721c10.912 2.1081 17.609 9.5485 17.609 21.2051 0 15.0048-11.037 24.1812-26.538 24.1812zm-2.48-48.9825c10.541 0 16.989-5.7043 16.989-14.6328v-1.2401c0-8.9284-6.448-14.5087-16.989-14.5087h-22.941v30.3816zm1.116 41.0461c11.533 0 18.601-6.3243 18.601-15.9968v-1.2401c0-10.0445-7.192-16.1208-18.725-16.1208h-23.933v33.3577zm103.006 7.9364h-9.92l-7.441-23.6852h-34.722l-7.44 23.6852h-9.425l28.646-87.3005h11.285zm-34.226-77.752h-.744l-14.633 46.2544h29.886zm118.959 77.752v-87.3005h56.051v8.0604h-46.75v30.0096h43.03v7.9364h-43.03v33.2337h46.75v8.0604z" fill="#0052ff" fill-rule="evenodd"/></g></svg>